<svg width="22" height="22" viewBox="0 0 22 22" fill="none" xmlns="http://www.w3.org/2000/svg">
<path d="M5.61587 19.6286L3.95533 21.2892L0.710848 17.9756L2.36379 16.3916L2.36387 16.3916L2.37139 16.3841L7.35992 11.3956L7.71053 11.045L7.36286 10.6915L2.37433 5.61884L2.37434 5.61883L2.37139 5.61587L0.707107 3.95159L3.95159 0.707107L5.61587 2.37139L5.61586 2.3714L5.61884 2.37433L10.6915 7.36286L11.045 7.71053L11.3956 7.35992L16.3841 2.37139L16.3842 2.37147L16.3916 2.36379L17.9756 0.710848L21.2892 3.95533L19.6286 5.61587L14.556 10.6885L14.1995 11.045L14.559 11.3985L19.6316 16.3871L19.6315 16.3871L19.6362 16.3916L21.2853 17.9719L17.9719 21.2853L16.3916 19.6362L16.3916 19.6362L16.3871 19.6316L11.3985 14.559L11.045 14.1995L10.6885 14.556L5.61587 19.6286Z" stroke="black"/>
</svg>
