<svg width="13" height="13" viewBox="0 0 13 13" fill="none" xmlns="http://www.w3.org/2000/svg">
<path d="M12.0768 2.19306L11.2868 2.94494L8.33403 5.75522L7.9503 6.12044L8.33706 6.48245L11.2898 9.24615L11.2898 9.24618L11.2945 9.25052L12.0726 9.96021L10.4643 11.4909L9.68361 10.7156L9.68364 10.7155L9.679 10.711L6.77521 7.90076L6.43038 7.56704L6.08278 7.89787L3.13005 10.7081L2.30384 11.4945L0.72927 9.964L1.51151 9.25052L1.51159 9.25061L1.51928 9.24329L4.42306 6.47959L4.80044 6.12042L4.42608 5.75811L1.52229 2.94783L1.5223 2.94782L1.51928 2.94494L0.725249 2.18922L2.30019 0.690261L3.13005 1.48008L3.13004 1.4801L3.13308 1.48295L6.08581 4.24665L6.43036 4.56913L6.7722 4.24378L9.67598 1.48008L9.67606 1.48017L9.68361 1.47267L10.4679 0.693737L12.0768 2.19306Z" fill="white" stroke="black"/>
</svg>
